# xmcd
#
# Track frame offsets: 
#        150
#        12527
#        26279
#        46492
#        58663
#        68662
#        78166
#        88259
#        101443
#        112496
#        122613
#        138560
#        148792
#        161235
#        172231
#        181450
#        193975
#        206049
#        217993
#        229674
#
# Disc length: 3247 seconds
#
# Revision: 0
# Processed by: cddbd v1.5.2PL0 Copyright (c) Steve Scherf et al.
# Submitted via: ExactAudioCopyFreeDBPlugin 1.0
#
DISCID=300cad14
DTITLE=Bo Diddley - The Indispensable Vol. 2 (1959-1962) [CD 3]
DYEAR=2013
DGENRE=R&B
TTITLE0=Rock 'n' Roll
TTITLE1=You Can't Juge a Book by Looking at the Cover
TTITLE2=I Can Tell
TTITLE3=Sad Sack
TTITLE4=Mama Don't Allow No Twistin'
TTITLE5=Give Me a Break
TTITLE6=Babes in the Wood
TTITLE7=Who May Your Lover Be
TTITLE8=Here 'T Is
TTITLE9=Diddling
TTITLE10=Bo's a Lumberjack
TTITLE11=Ben
TTITLE12=Help Out
TTITLE13=Little Girl
TTITLE14=Gimme, Gimme
TTITLE15=Same Old Thing
TTITLE16=Diana
TTITLE17=Meet You on a Saturday
TTITLE18=Put the Shoes on Willie
TTITLE19=Pretty Girl
EXTD=
EXTT0=
EXTT1=
EXTT2=
EXTT3=
EXTT4=
EXTT5=
EXTT6=
EXTT7=
EXTT8=
EXTT9=
EXTT10=
EXTT11=
EXTT12=
EXTT13=
EXTT14=
EXTT15=
EXTT16=
EXTT17=
EXTT18=
EXTT19=
PLAYORDER=
